<svg width="31" height="31" viewBox="0 0 31 31" fill="none" xmlns="http://www.w3.org/2000/svg">
<g clip-path="url(#clip0_0_1250)">
<path d="M29.7083 20.6667C29.5084 20.6667 29.3112 20.6202 29.1323 20.531L26.5489 19.2394C26.2423 19.0862 26.0091 18.8176 25.9006 18.4925C25.7921 18.1674 25.8171 17.8126 25.9703 17.506C26.1234 17.1994 26.392 16.9661 26.7171 16.8576C27.0422 16.7491 27.3971 16.7742 27.7037 16.9273L30.287 18.219C30.5477 18.3489 30.7569 18.5632 30.8805 18.827C31.0041 19.0908 31.0349 19.3887 30.9679 19.6722C30.9008 19.9557 30.7399 20.2082 30.5113 20.3888C30.2826 20.5693 29.9997 20.6672 29.7083 20.6667ZM27.7024 8.9125L30.2857 7.62083C30.5923 7.4677 30.8255 7.19905 30.934 6.87397C31.0426 6.54889 31.0175 6.19402 30.8644 5.88742C30.7112 5.58082 30.4426 5.3476 30.1175 5.23908C29.7924 5.13056 29.4376 5.15562 29.131 5.30875L26.5476 6.60042C26.241 6.75355 26.0078 7.0222 25.8993 7.34728C25.7908 7.67236 25.8158 8.02723 25.969 8.33383C26.1221 8.64043 26.3907 8.87365 26.7158 8.98217C27.0409 9.09069 27.3958 9.06563 27.7024 8.9125ZM31 12.9167C31 12.5741 30.8639 12.2456 30.6217 12.0033C30.3794 11.7611 30.0509 11.625 29.7083 11.625H27.125C26.7824 11.625 26.4539 11.7611 26.2117 12.0033C25.9694 12.2456 25.8333 12.5741 25.8333 12.9167C25.8333 13.2592 25.9694 13.5878 26.2117 13.83C26.4539 14.0722 26.7824 14.2083 27.125 14.2083H29.7083C30.0509 14.2083 30.3794 14.0722 30.6217 13.83C30.8639 13.5878 31 13.2592 31 12.9167ZM23.25 24.5417V1.29167C23.25 0.949095 23.1139 0.620555 22.8717 0.37832C22.6294 0.136086 22.3009 0 21.9583 0C21.6158 0 21.2872 0.136086 21.045 0.37832C20.8028 0.620555 20.6667 0.949095 20.6667 1.29167C20.6667 5.10079 17.3303 6.45833 14.2083 6.45833H5.16667C3.79638 6.45833 2.48222 7.00268 1.51328 7.97161C0.544344 8.94055 0 10.2547 0 11.625L0 14.2083C0 15.5786 0.544344 16.8928 1.51328 17.8617C2.48222 18.8307 3.79638 19.375 5.16667 19.375H14.2083C17.3303 19.375 20.6667 20.7325 20.6667 24.5417C20.6667 24.8842 20.8028 25.2128 21.045 25.455C21.2872 25.6972 21.6158 25.8333 21.9583 25.8333C22.3009 25.8333 22.6294 25.6972 22.8717 25.455C23.1139 25.2128 23.25 24.8842 23.25 24.5417ZM10.5736 21.9583H5.16667C4.56529 21.9559 3.96623 21.8835 3.38158 21.7426L6.61075 28.9527C6.88195 29.5621 7.32399 30.0798 7.88335 30.4432C8.44271 30.8065 9.0954 30.9999 9.76242 31C10.2931 30.9993 10.8152 30.8658 11.281 30.6116C11.7469 30.3575 12.1418 29.9908 12.4297 29.545C12.7176 29.0992 12.8893 28.5884 12.9292 28.0592C12.9692 27.5301 12.876 26.9993 12.6583 26.5153L10.5736 21.9583Z" fill="white"/>
</g>
<defs>
<clipPath id="clip0_0_1250">
<rect width="31" height="31" fill="white"/>
</clipPath>
</defs>
</svg>
