<svg width="45" height="45" viewBox="0 0 45 45" fill="none" xmlns="http://www.w3.org/2000/svg">
<path fill-rule="evenodd" clip-rule="evenodd" d="M8.2788 16.2341C7.5 17.6569 7.5 19.3732 7.5 22.8059V25.0874C7.5 30.9388 7.5 33.8644 9.25736 35.6822C11.0147 37.5 13.8431 37.5 19.5 37.5H25.5C31.1569 37.5 33.9853 37.5 35.7426 35.6822C37.5 33.8644 37.5 30.9388 37.5 25.0874V22.8059C37.5 19.3732 37.5 17.6569 36.7212 16.2341C35.9424 14.8113 34.5196 13.9283 31.6739 12.1622L28.6739 10.3003C25.6659 8.43343 24.1619 7.5 22.5 7.5C20.8381 7.5 19.3341 8.43344 16.326 10.3003L13.3261 12.1622C10.4804 13.9283 9.0576 14.8113 8.2788 16.2341ZM18 30.375C17.3787 30.375 16.875 30.8787 16.875 31.5C16.875 32.1213 17.3787 32.625 18 32.625H27C27.6213 32.625 28.125 32.1213 28.125 31.5C28.125 30.8787 27.6213 30.375 27 30.375H18Z" fill="white"/>
</svg>
