<svg width="30" height="30" viewBox="0 0 30 30" fill="none" xmlns="http://www.w3.org/2000/svg">
<path d="M26.7675 6.25H21.25V0.7325L26.7675 6.25ZM27.5 8.75V30H2.5V3.75C2.5 1.67875 4.17875 0 6.25 0H18.75V8.75H27.5ZM16.25 23.75H13.75V26.25H16.25V23.75ZM19.2787 14.6637C18.9475 13.07 17.725 11.775 16.1625 11.365C14.8212 11.0125 13.435 11.2913 12.3537 12.1263C11.2712 12.96 10.6262 14.2712 10.6262 15.6325V16.2487H13.1262V15.6325C13.1262 15.0412 13.4087 14.47 13.8812 14.1062C14.3512 13.7425 14.9387 13.6288 15.5287 13.7838C16.16 13.9488 16.6962 14.52 16.8312 15.1725C17.035 16.15 16.4962 16.92 15.8712 17.2487C14.5425 17.95 13.75 19.1888 13.75 20.5625V21.2488H16.25V20.5625C16.25 19.925 16.8525 19.5575 17.0362 19.46C18.7837 18.54 19.685 16.6112 19.2775 14.6625L19.2787 14.6637Z" fill="white"/>
</svg>
